# xmcd
#
# Track frame offsets:
#	150
#	16760
#	32643
#	49731
#	69293
#	85844
#	103335
#	121516
#	140063
#	159925
#	176421
#	194151
#
# Disc length: 2980 seconds
#
# Revision: 0
# Processed by: cddbd v1.4PL0 Copyright (c) Steve Scherf et al.
# Submitted via: audiograbber 1.80.04
#
DISCID=980ba20c
DTITLE=Aua - Aquarius
DYEAR=1900
DGENRE=
TTITLE0=Cartoon Heroes
TTITLE1=Around the World
TTITLE2=Freaky Friday 
TTITLE3=We Belong To The Sea
TTITLE4=An Apple A Day
TTITLE5=Halloween
TTITLE6=Good Guys
TTITLE7=Back From Mars
TTITLE8=Aquarius
TTITLE9=Cuba Libre
TTITLE10=Bumble Bees
TTITLE11=Goodbye to The Circus
EXTD=
EXTT0=
EXTT1=
EXTT2=
EXTT3=
EXTT4=
EXTT5=
EXTT6=
EXTT7=
EXTT8=
EXTT9=
EXTT10=
EXTT11=
PLAYORDER=
